<svg width="88" height="88" viewBox="0 0 88 88" fill="none" xmlns="http://www.w3.org/2000/svg">
<rect width="88" height="88" fill="#48BF91"/>
<path d="M66.8333 60.4086V62.1644C66.8333 65.0735 64.3336 67.4316 61.25 67.4316H16.5833C13.4997 67.4316 11 65.0735 11 62.1644V34.0724C11 31.1633 13.4997 28.8051 16.5833 28.8051H18.4444V51.6299C18.4444 56.4705 22.6189 60.4086 27.75 60.4086H66.8333ZM78 51.6299V23.5379C78 20.6288 75.5003 18.2706 72.4167 18.2706H27.75C24.6664 18.2706 22.1667 20.6288 22.1667 23.5379V51.6299C22.1667 54.5389 24.6664 56.8971 27.75 56.8971H72.4167C75.5003 56.8971 78 54.5389 78 51.6299ZM40.7778 28.8051C40.7778 31.7142 38.2781 34.0724 35.1944 34.0724C32.1108 34.0724 29.6111 31.7142 29.6111 28.8051C29.6111 25.8961 32.1108 23.5379 35.1944 23.5379C38.2781 23.5379 40.7778 25.8961 40.7778 28.8051ZM29.6111 44.6069L36.0686 38.515C36.6137 38.0008 37.4975 38.0008 38.0426 38.515L42.6389 42.8511L58.4019 27.9805C58.947 27.4663 59.8308 27.4663 60.376 27.9805L70.5556 37.5839V49.8741H29.6111V44.6069Z" fill="white"/>
</svg>
