<svg width="88" height="88" viewBox="0 0 88 88" fill="none" xmlns="http://www.w3.org/2000/svg">
<rect width="88" height="88" fill="#48BF91"/>
<path d="M43.4581 30.6789L36.0076 33.6946V21.3642L29.9429 41.7153L36.0076 39.1273V53.062L43.4581 30.6789ZM34.2336 20.3375L34.0895 20.8401L32.4043 26.4974C27.9362 28.155 24.7653 32.3365 24.7653 37.2237C24.7653 42.8168 28.5681 47.4795 34.0119 48.5062V54.2383C25.3751 53.1154 19 45.8754 19 37.2344C19 28.6256 25.6301 21.4925 34.2336 20.3375ZM68.7588 68.1622C67.517 69.36 66.1977 69.4776 65.5879 69.2851C64.9892 69.0926 62.5833 67.157 58.8913 64.5369C55.1993 61.9061 55.166 60.719 54.1238 58.4732C53.0816 56.2381 50.7534 53.9175 47.7488 52.8694L46.6733 51.2974C43.9348 53.1047 40.7972 54.1742 37.6595 54.3666L37.8924 53.6608L39.6552 48.3672C44.8107 47.0946 48.6246 42.5923 48.6246 37.2237C48.6246 31.3954 44.3672 26.3049 37.9811 25.7702V20.1985C47.2055 20.7439 54.4786 28.1657 54.4786 37.2344C54.4786 40.8277 53.2369 44.1536 51.2634 46.9021L52.8821 47.9287C53.9686 50.8268 56.3745 53.062 58.6917 54.0672C61.0089 55.0725 62.2617 55.1046 64.9892 58.6657C67.7166 62.2162 69.7233 64.5369 69.9229 65.1144C70.1225 65.6919 70.0005 66.9645 68.7588 68.1622ZM67.6611 66.248C67.6611 65.7774 67.262 65.3924 66.7742 65.3924C66.2863 65.3924 65.8872 65.7774 65.8872 66.248C65.8872 66.7185 66.2863 67.1035 66.7742 67.1035C67.262 67.1035 67.6611 66.7185 67.6611 66.248Z" fill="white"/>
</svg>
