<svg width="88" height="88" viewBox="0 0 88 88" fill="none" xmlns="http://www.w3.org/2000/svg">
<rect width="88" height="88" fill="#48BF91"/>
<path d="M60.6875 19.9845C60.6875 18.9977 59.9184 18.1985 58.9688 18.1985H52.0938C51.1441 18.1985 50.375 18.9977 50.375 19.9845V25.3427H60.6875V19.9845ZM22.8653 32.4857C22.5957 42.962 16.3717 45.237 16 59.7241V64.6357C16 66.6081 17.5394 68.2078 19.4375 68.2078H29.75C31.6481 68.2078 33.1875 66.6081 33.1875 64.6357V46.7752H36.625V28.9148H26.2953C24.4015 28.9148 22.9169 30.5189 22.8653 32.4857ZM64.1347 32.4857C64.0831 30.5189 62.5985 28.9148 60.7047 28.9148H50.375V46.7752H53.8125V64.6357C53.8125 66.6081 55.3519 68.2078 57.25 68.2078H67.5625C69.4606 68.2078 71 66.6081 71 64.6357V59.7241C70.6283 45.237 64.4043 42.962 64.1347 32.4857ZM34.9062 18.1985H28.0312C27.0816 18.1985 26.3125 18.9977 26.3125 19.9845V25.3427H36.625V19.9845C36.625 18.9977 35.8559 18.1985 34.9062 18.1985ZM40.0625 46.7752H46.9375V28.9148H40.0625V46.7752Z" fill="white"/>
</svg>
