<svg id="visual" viewBox="0 0 900 600" width="900" height="600" xmlns="http://www.w3.org/2000/svg" xmlns:xlink="http://www.w3.org/1999/xlink" version="1.1"><path d="M0 360L30 362C60 364 120 368 180 374.8C240 381.7 300 391.3 360 395.7C420 400 480 399 540 392.7C600 386.3 660 374.7 720 375C780 375.3 840 387.7 870 393.8L900 400L900 601L870 601C840 601 780 601 720 601C660 601 600 601 540 601C480 601 420 601 360 601C300 601 240 601 180 601C120 601 60 601 30 601L0 601Z" fill="#48BF91" stroke-linecap="round" stroke-linejoin="miter"></path></svg>