<svg xmlns="http://www.w3.org/2000/svg" version="1.1" xmlns:xlink="http://www.w3.org/1999/xlink" xmlns:svgjs="http://svgjs.dev/svgjs" width="1000" height="111" viewBox="0 0 1000 111"><g transform="matrix(1,0,0,1,-0.6060605436057358,-0.13534101977582935)"><svg viewBox="0 0 396 44" data-background-color="#ffffff" preserveAspectRatio="xMidYMid meet" height="111" width="1000" xmlns="http://www.w3.org/2000/svg" xmlns:xlink="http://www.w3.org/1999/xlink"><g id="tight-bounds" transform="matrix(1,0,0,1,0.24000002473218274,0.05364869252375115)"><svg viewBox="0 0 395.52 43.89270261495249" height="43.89270261495249" width="395.52"><g><svg viewBox="0 0 454.5849436669896 50.447415416692216" height="43.89270261495249" width="395.52"><g transform="matrix(1,0,0,1,0,6.972110234868463)"><svg viewBox="0 0 395.52 36.50319494695529" height="36.50319494695529" width="395.52"><g id="textblocktransform"><svg viewBox="0 0 395.52 36.50319494695529" height="36.50319494695529" width="395.52" id="textblock"><g><svg viewBox="0 0 395.52 36.50319494695529" height="36.50319494695529" width="395.52"><g transform="matrix(1,0,0,1,0,0)"><svg width="395.52" viewBox="4.440000057220459 -36.25 398.0899963378906 36.7400016784668" height="36.50319494695529" data-palette-color="#50a060"><path d="M25.51 0L4.44 0 4.44-35.77 13.06-35.77 13.06-5.32 26.46-5.32 25.51 0ZM42.21-4.83L42.21-4.83Q43.36-4.83 44.41-5.09 45.46-5.35 46.26-5.88 47.07-6.42 47.56-7.25 48.04-8.08 48.04-9.23L48.04-9.23Q48.04-10.6 47.36-11.55 46.68-12.5 45.54-13.22 44.41-13.94 42.97-14.54 41.53-15.14 40.02-15.78 38.52-16.43 37.09-17.22 35.67-18.02 34.53-19.14 33.4-20.26 32.71-21.81 32.03-23.36 32.03-25.51L32.03-25.51Q32.03-27.98 32.98-29.97 33.93-31.96 35.69-33.35 37.45-34.74 39.93-35.5 42.4-36.25 45.46-36.25L45.46-36.25Q46.29-36.25 47.4-36.19 48.51-36.13 49.78-35.99 51.05-35.84 52.39-35.6 53.73-35.35 55.03-34.99L55.03-34.99 53.78-29.25 53.34-29.05Q52.19-29.57 51.06-29.92 49.92-30.27 48.86-30.51 47.8-30.74 46.87-30.83 45.94-30.93 45.24-30.93L45.24-30.93Q42.89-30.93 41.49-29.93 40.09-28.93 40.09-27L40.09-27Q40.09-25.63 40.77-24.69 41.45-23.75 42.59-23.02 43.72-22.29 45.16-21.69 46.6-21.09 48.11-20.43 49.61-19.78 51.05-18.99 52.49-18.21 53.62-17.09 54.76-15.97 55.44-14.44 56.13-12.92 56.13-10.79L56.13-10.79Q56.13-8.3 55.15-6.24 54.17-4.17 52.35-2.67 50.53-1.17 47.96-0.34 45.38 0.49 42.16 0.49L42.16 0.49Q40.96 0.49 39.57 0.35 38.18 0.22 36.7-0.05 35.23-0.32 33.71-0.76 32.2-1.2 30.78-1.83L30.78-1.83 32.05-7.59 32.54-7.84Q33.93-7.18 35.2-6.62 36.47-6.05 37.66-5.66 38.84-5.27 39.96-5.05 41.09-4.83 42.21-4.83ZM90.62-7.2L90.62-3.3Q89.45-2.32 87.96-1.61 86.47-0.9 84.85-0.44 83.22 0.02 81.54 0.26 79.85 0.49 78.32 0.49L78.32 0.49Q74.6 0.49 71.45-0.74 68.31-1.98 65.99-4.25 63.67-6.52 62.36-9.72 61.05-12.92 61.05-16.87L61.05-16.87Q61.05-19.97 61.85-22.61 62.64-25.24 64.05-27.39 65.45-29.54 67.38-31.2 69.31-32.86 71.58-33.98 73.85-35.11 76.37-35.68 78.9-36.25 81.51-36.25L81.51-36.25Q82.34-36.25 83.45-36.19 84.57-36.13 85.8-35.99 87.03-35.84 88.33-35.6 89.62-35.35 90.86-35.01L90.86-35.01 89.59-29.25 89.11-29.05Q86.86-30.13 84.83-30.53 82.81-30.93 81.25-30.93L81.25-30.93Q78.71-30.93 76.63-30.02 74.56-29.1 73.07-27.44 71.58-25.78 70.76-23.46 69.94-21.14 69.94-18.31L69.94-18.31Q69.94-15.43 70.78-13.02 71.63-10.62 73.24-8.87 74.85-7.13 77.18-6.16 79.51-5.2 82.49-5.2L82.49-5.2Q84.79-5.2 86.77-5.74 88.76-6.27 90.62-7.2L90.62-7.2ZM116.37-35.77L116.37 0 107.75 0 107.75-35.77 116.37-35.77ZM132.04 0L125.18 0 125.18-35.77 136.9-35.77 148.79-16.24 151.45-10.91 151.94-10.91 151.67-16.89 151.67-35.77 158.53-35.77 158.53 0 149.57 0 134.75-24.17 132.26-29.25 131.77-29.25 132.04-23.63 132.04 0ZM176.5-4.83L176.5-4.83Q177.65-4.83 178.7-5.09 179.75-5.35 180.55-5.88 181.36-6.42 181.85-7.25 182.33-8.08 182.33-9.23L182.33-9.23Q182.33-10.6 181.65-11.55 180.97-12.5 179.83-13.22 178.7-13.94 177.26-14.54 175.82-15.14 174.31-15.78 172.81-16.43 171.38-17.22 169.96-18.02 168.82-19.14 167.69-20.26 167-21.81 166.32-23.36 166.32-25.51L166.32-25.51Q166.32-27.98 167.27-29.97 168.22-31.96 169.98-33.35 171.74-34.74 174.22-35.5 176.69-36.25 179.75-36.25L179.75-36.25Q180.58-36.25 181.69-36.19 182.8-36.13 184.07-35.99 185.34-35.84 186.68-35.6 188.02-35.35 189.32-34.99L189.32-34.99 188.07-29.25 187.63-29.05Q186.48-29.57 185.35-29.92 184.21-30.27 183.15-30.51 182.09-30.74 181.16-30.83 180.23-30.93 179.53-30.93L179.53-30.93Q177.18-30.93 175.78-29.93 174.37-28.93 174.37-27L174.37-27Q174.37-25.63 175.06-24.69 175.74-23.75 176.88-23.02 178.01-22.29 179.45-21.69 180.89-21.09 182.39-20.43 183.9-19.78 185.34-18.99 186.78-18.21 187.91-17.09 189.05-15.97 189.73-14.44 190.41-12.92 190.41-10.79L190.41-10.79Q190.41-8.3 189.44-6.24 188.46-4.17 186.64-2.67 184.82-1.17 182.25-0.34 179.67 0.49 176.45 0.49L176.45 0.49Q175.25 0.49 173.86 0.35 172.47 0.22 170.99-0.05 169.52-0.32 168-0.76 166.49-1.2 165.07-1.83L165.07-1.83 166.34-7.59 166.83-7.84Q168.22-7.18 169.49-6.62 170.76-6.05 171.95-5.66 173.13-5.27 174.25-5.05 175.38-4.83 176.5-4.83ZM205.67-30.44L205.67 0 197.05 0 197.05-35.77 209.89-35.77Q213.43-35.77 216.17-34.97 218.9-34.18 220.77-32.69 222.64-31.2 223.59-29.1 224.54-27 224.54-24.37L224.54-24.37Q224.54-21.51 223.51-19.19 222.47-16.87 220.69-15.25 218.9-13.62 216.52-12.74 214.14-11.87 211.46-11.87L211.46-11.87Q211.07-11.87 210.7-11.89 210.33-11.91 209.85-11.99L209.85-11.99 210.26-16.87Q210.46-16.82 210.75-16.81 211.04-16.8 211.29-16.8L211.29-16.8Q212.51-16.8 213.42-17.32 214.34-17.85 214.94-18.75 215.53-19.65 215.84-20.85 216.14-22.05 216.14-23.41L216.14-23.41Q216.14-25.32 215.67-26.65 215.19-27.98 214.3-28.82 213.41-29.66 212.15-30.05 210.9-30.44 209.33-30.44L209.33-30.44 205.67-30.44ZM254.03 0L231.4 0 231.4-35.77 254.74-35.77 253.79-30.44 240.02-30.44 240.02-20.95 252.03-20.95 251.15-15.99 240.02-15.99 240.02-5.32 254.98-5.32 254.03 0ZM290.26-7.2L290.26-3.3Q289.09-2.32 287.6-1.61 286.11-0.9 284.49-0.44 282.86 0.02 281.18 0.26 279.49 0.49 277.96 0.49L277.96 0.49Q274.25 0.49 271.1-0.74 267.95-1.98 265.63-4.25 263.31-6.52 262-9.72 260.7-12.92 260.7-16.87L260.7-16.87Q260.7-19.97 261.49-22.61 262.28-25.24 263.69-27.39 265.09-29.54 267.02-31.2 268.95-32.86 271.22-33.98 273.49-35.11 276.02-35.68 278.54-36.25 281.15-36.25L281.15-36.25Q281.98-36.25 283.1-36.19 284.21-36.13 285.44-35.99 286.67-35.84 287.97-35.6 289.26-35.35 290.5-35.01L290.5-35.01 289.24-29.25 288.75-29.05Q286.5-30.13 284.47-30.53 282.45-30.93 280.89-30.93L280.89-30.93Q278.35-30.93 276.27-30.02 274.2-29.1 272.71-27.44 271.22-25.78 270.4-23.46 269.58-21.14 269.58-18.31L269.58-18.31Q269.58-15.43 270.42-13.02 271.27-10.62 272.88-8.87 274.49-7.13 276.82-6.16 279.15-5.2 282.13-5.2L282.13-5.2Q284.43-5.2 286.42-5.74 288.41-6.27 290.26-7.2L290.26-7.2ZM314.7-30.44L314.7 0 306.08 0 306.08-30.44 294.97-30.44 295.92-35.77 325.93-35.77 324.98-30.44 314.7-30.44ZM347.16-4.83L347.16-4.83Q349.44-4.83 351.22-5.88 353-6.93 354.22-8.7 355.44-10.47 356.08-12.81 356.71-15.14 356.71-17.68L356.71-17.68Q356.71-20.41 356-22.81 355.29-25.22 353.99-27.03 352.68-28.83 350.84-29.88 349-30.93 346.75-30.93L346.75-30.93Q344.48-30.93 342.71-29.87 340.94-28.81 339.73-27.04 338.52-25.27 337.89-22.94 337.25-20.61 337.25-18.07L337.25-18.07Q337.25-15.33 337.96-12.93 338.67-10.52 339.96-8.73 341.26-6.93 343.09-5.88 344.92-4.83 347.16-4.83ZM346.33 0.49L346.33 0.49Q342.5 0.49 339.22-0.7 335.93-1.88 333.52-4.14 331.1-6.4 329.72-9.67 328.34-12.94 328.34-17.11L328.34-17.11Q328.34-21.39 329.79-24.91 331.25-28.44 333.82-30.96 336.4-33.47 339.93-34.86 343.45-36.25 347.63-36.25L347.63-36.25Q351.44-36.25 354.72-35.08 358-33.91 360.42-31.65 362.84-29.39 364.22-26.12 365.6-22.85 365.6-18.68L365.6-18.68Q365.6-15.82 364.94-13.29 364.28-10.77 363.07-8.63 361.86-6.49 360.13-4.81 358.4-3.13 356.26-1.94 354.12-0.76 351.62-0.13 349.12 0.49 346.33 0.49ZM385.93-13.23L381.39-13.23 381.39 0 372.77 0 372.77-35.77 385.61-35.77Q389.11-35.77 391.69-35.01 394.28-34.25 396-32.97 397.72-31.69 398.58-30 399.43-28.32 399.43-26.46L399.43-26.46Q399.43-24.78 398.8-23.28 398.16-21.78 397.16-20.52 396.16-19.26 394.93-18.23 393.7-17.19 392.52-16.41L392.52-16.41 402.53 0 392.52 0 385.93-13.23ZM381.39-30.44L381.39-18.19 387.57-18.19Q388.25-18.55 388.87-19.17 389.5-19.78 389.97-20.57 390.45-21.36 390.74-22.34 391.03-23.32 391.03-24.46L391.03-24.46Q391.03-25.73 390.64-26.83 390.25-27.93 389.47-28.74 388.69-29.54 387.54-29.99 386.4-30.44 384.86-30.44L384.86-30.44 381.39-30.44Z" opacity="1" transform="matrix(1,0,0,1,0,0)" fill="#50a060" class="wordmark-text-0" data-fill-palette-color="primary" id="text-0"></path></svg></g></svg></g></svg></g></svg></g><g transform="matrix(1,0,0,1,404.1375282502974,0)"><svg viewBox="0 0 50.447415416692216 50.447415416692216" height="50.447415416692216" width="50.447415416692216"><g data-palette-color="#50a060"><rect width="13.788960213895871" height="50.447415416692216" fill="#50a060" stroke="transparent" data-fill-palette-color="accent" x="0" fill-opacity="1"></rect><rect width="13.788960213895871" height="50.447415416692216" fill="#50a060" stroke="transparent" data-fill-palette-color="accent" x="16.815805138897403" fill-opacity="0.75"></rect><rect width="13.788960213895871" height="50.447415416692216" fill="#50a060" stroke="transparent" data-fill-palette-color="accent" x="33.631610277794806" fill-opacity="0.5"></rect></g></svg></g></svg></g><defs></defs></svg><rect width="395.52" height="43.89270261495249" fill="none" stroke="none" visibility="hidden"></rect></g></svg></g></svg>