<svg width="235" height="26" viewBox="0 0 235 26" fill="none" xmlns="http://www.w3.org/2000/svg">
<g clip-path="url(#clip0_1365_64)">
<g clip-path="url(#clip1_1365_64)">
<g clip-path="url(#clip2_1365_64)">
<g clip-path="url(#clip3_1365_64)">
<g clip-path="url(#clip4_1365_64)">
<g clip-path="url(#clip5_1365_64)">
<g clip-path="url(#clip6_1365_64)">
<path d="M10.7979 22.1017H-0.00012207V3.82991H4.41747V19.3841H11.2847L10.7979 22.1017ZM19.3563 19.6344C19.7492 19.6344 20.1251 19.5902 20.4838 19.5016C20.8425 19.4131 21.1586 19.2786 21.4319 19.0981C21.7086 18.9142 21.9307 18.6809 22.0981 18.3983C22.2621 18.1156 22.3441 17.7785 22.3441 17.3869C22.3441 16.9203 22.2279 16.5253 21.9956 16.2018C21.7633 15.8783 21.4524 15.5939 21.0629 15.3487C20.6768 15.1035 20.2378 14.8788 19.7458 14.6744C19.2538 14.4701 18.7499 14.259 18.234 14.041C17.7215 13.8197 17.221 13.5745 16.7324 13.3055C16.2473 13.033 15.81 12.7061 15.4205 12.3247C15.0344 11.9433 14.7235 11.4887 14.4877 10.9608C14.2554 10.433 14.1393 9.803 14.1393 9.07084C14.1393 8.2297 14.3015 7.4703 14.6261 6.79262C14.9507 6.11494 15.4136 5.53943 16.0149 5.06607C16.6163 4.59272 17.3406 4.22664 18.1879 3.96783C19.0318 3.71242 19.9764 3.58472 21.0219 3.58472C21.3055 3.58472 21.6369 3.59493 22.0161 3.61537C22.3954 3.6358 22.8019 3.66985 23.2358 3.71753C23.6697 3.76861 24.1156 3.83502 24.5734 3.91675C25.0312 4.00188 25.4822 4.10574 25.9264 4.22834L25.2857 7.1604L25.0603 7.26256C24.6674 7.08548 24.2779 6.93735 23.8918 6.81816C23.5023 6.69897 23.1265 6.59851 22.7643 6.51678C22.4022 6.43845 22.0622 6.38397 21.7445 6.35332C21.4268 6.31926 21.1483 6.30224 20.9092 6.30224C20.1063 6.30224 19.4657 6.47251 18.9873 6.81305C18.509 7.15359 18.2699 7.65248 18.2699 8.30973C18.2699 8.77627 18.386 9.1696 18.6184 9.48971C18.8507 9.80981 19.1616 10.0942 19.5511 10.3428C19.9371 10.5914 20.3762 10.8178 20.8682 11.0221C21.3601 11.2265 21.8641 11.441 22.38 11.6658C22.8925 11.8871 23.3947 12.1323 23.8867 12.4013C24.3787 12.667 24.8177 12.9905 25.2038 13.3719C25.5932 13.7533 25.9041 14.2045 26.1365 14.7255C26.3722 15.2432 26.4901 15.8646 26.4901 16.59C26.4901 17.4379 26.3227 18.2127 25.9879 18.9142C25.653 19.6191 25.1747 20.227 24.5529 20.7378C23.9311 21.2486 23.1812 21.6453 22.3031 21.928C21.4216 22.2106 20.4308 22.352 19.3307 22.352C18.9207 22.352 18.4783 22.3281 18.0034 22.2804C17.5285 22.2362 17.0382 22.1681 16.5326 22.0761C16.0303 21.9842 15.5195 21.8633 15.0002 21.7134C14.4843 21.5636 13.9838 21.3814 13.4987 21.1669L14.1495 18.2246L14.4006 18.0969C14.8755 18.3216 15.3299 18.5294 15.7638 18.7201C16.1977 18.9142 16.618 19.0776 17.0245 19.2105C17.4277 19.3433 17.8206 19.4471 18.2032 19.5221C18.5893 19.597 18.9737 19.6344 19.3563 19.6344ZM44.1656 18.4238V20.416C43.7659 20.7497 43.3115 21.0375 42.8024 21.2792C42.2933 21.521 41.762 21.7203 41.2086 21.8769C40.6517 22.0336 40.0862 22.1527 39.5123 22.2345C38.9349 22.3128 38.3848 22.352 37.8621 22.352C36.5911 22.352 35.4175 22.1425 34.3413 21.7237C33.2685 21.3014 32.3358 20.7037 31.5432 19.9307C30.7505 19.1577 30.1304 18.2263 29.6828 17.1366C29.2353 16.0468 29.0115 14.8294 29.0115 13.4843C29.0115 12.4286 29.1482 11.4512 29.4215 10.5522C29.6914 9.65657 30.0672 8.84268 30.5489 8.11051C31.0273 7.37835 31.5961 6.72962 32.2555 6.16432C32.9149 5.59902 33.6324 5.12567 34.4079 4.74426C35.1835 4.35945 36.0018 4.06999 36.8627 3.87588C37.7271 3.68177 38.6052 3.58472 39.4969 3.58472C39.7805 3.58472 40.1119 3.59493 40.4911 3.61537C40.8737 3.6358 41.2752 3.66985 41.6954 3.71753C42.1157 3.76861 42.5479 3.83502 42.992 3.91675C43.4327 4.00188 43.8649 4.10234 44.2886 4.21812L43.6377 7.1604L43.3917 7.26256C42.623 6.89478 41.8919 6.64278 41.1983 6.50656C40.5082 6.37035 39.8966 6.30224 39.3636 6.30224C38.4958 6.30224 37.7066 6.45718 36.996 6.76708C36.2887 7.08037 35.6806 7.51967 35.1715 8.08497C34.6625 8.65027 34.2679 9.32795 33.9877 10.118C33.7075 10.9081 33.5675 11.785 33.5675 12.7487C33.5675 13.7294 33.711 14.6302 33.9979 15.4509C34.2883 16.2682 34.7086 16.9748 35.2586 17.5708C35.8087 18.1633 36.4818 18.6247 37.2778 18.9551C38.0739 19.282 38.981 19.4454 39.9991 19.4454C40.7849 19.4454 41.5161 19.3535 42.1925 19.1696C42.8724 18.9891 43.5301 18.7405 44.1656 18.4238ZM57.362 3.82991V22.1017H52.9444V3.82991H57.362ZM65.3926 22.1017H61.877V3.82991H67.8833L73.9767 13.8061L75.3399 16.5287H75.591L75.4526 13.474V3.82991H78.9683V22.1017H74.3764L66.7814 9.75533L65.5053 7.1604H65.2542L65.3926 10.0312V22.1017ZM88.1776 19.6344C88.5705 19.6344 88.9463 19.5902 89.305 19.5016C89.6638 19.4131 89.9798 19.2786 90.2531 19.0981C90.5299 18.9142 90.7519 18.6809 90.9193 18.3983C91.0833 18.1156 91.1653 17.7785 91.1653 17.3869C91.1653 16.9203 91.0492 16.5253 90.8168 16.2018C90.5845 15.8783 90.2736 15.5939 89.8841 15.3487C89.4981 15.1035 89.059 14.8788 88.567 14.6744C88.0751 14.4701 87.5711 14.259 87.0552 14.041C86.5427 13.8197 86.0422 13.5745 85.5537 13.3055C85.0685 13.033 84.6312 12.7061 84.2417 12.3247C83.8556 11.9433 83.5447 11.4887 83.309 10.9608C83.0767 10.433 82.9605 9.803 82.9605 9.07084C82.9605 8.2297 83.1228 7.4703 83.4474 6.79262C83.7719 6.11494 84.2349 5.53943 84.8362 5.06607C85.4375 4.59272 86.1618 4.22664 87.0091 3.96783C87.853 3.71242 88.7977 3.58472 89.8431 3.58472C90.1267 3.58472 90.4581 3.59493 90.8373 3.61537C91.2166 3.6358 91.6232 3.66985 92.0571 3.71753C92.491 3.76861 92.9368 3.83502 93.3946 3.91675C93.8524 4.00188 94.3034 4.10574 94.7476 4.22834L94.107 7.1604L93.8815 7.26256C93.4886 7.08548 93.0991 6.93735 92.713 6.81816C92.3235 6.69897 91.9477 6.59851 91.5856 6.51678C91.2234 6.43845 90.8835 6.38397 90.5657 6.35332C90.248 6.31926 89.9695 6.30224 89.7304 6.30224C88.9275 6.30224 88.2869 6.47251 87.8086 6.81305C87.3268 7.15359 87.086 7.65248 87.086 8.30973C87.086 8.77627 87.2038 9.1696 87.4396 9.48971C87.6719 9.80981 87.9828 10.0942 88.3723 10.3428C88.7584 10.5914 89.1974 10.8178 89.6894 11.0221C90.1814 11.2265 90.6836 11.441 91.1961 11.6658C91.712 11.8871 92.2159 12.1323 92.7079 12.4013C93.1999 12.667 93.6389 12.9905 94.025 13.3719C94.4145 13.7533 94.7254 14.2045 94.9577 14.7255C95.19 15.2432 95.3062 15.8646 95.3062 16.59C95.3062 17.4379 95.1405 18.2127 94.8091 18.9142C94.4743 19.6191 93.9959 20.227 93.3741 20.7378C92.7523 21.2486 92.0024 21.6453 91.1243 21.928C90.2429 22.2106 89.2521 22.352 88.1519 22.352C87.7419 22.352 87.2995 22.3281 86.8246 22.2804C86.3497 22.2362 85.8594 22.1681 85.3538 22.0761C84.8516 21.9842 84.3408 21.8633 83.8215 21.7134C83.3056 21.5636 82.805 21.3814 82.3199 21.1669L82.9707 18.2246L83.2219 18.0969C83.6968 18.3216 84.1512 18.5294 84.5851 18.7201C85.019 18.9142 85.4392 19.0776 85.8458 19.2105C86.2489 19.3433 86.6418 19.4471 87.0245 19.5221C87.4105 19.597 87.7949 19.6344 88.1776 19.6344ZM103.127 6.55254V22.1017H98.7091V3.82991H105.289C106.499 3.82991 107.572 3.96612 108.508 4.23856C109.44 4.50758 110.226 4.8958 110.865 5.40321C111.504 5.91062 111.986 6.52189 112.31 7.23702C112.635 7.95216 112.797 8.75754 112.797 9.65316C112.797 10.6271 112.621 11.5091 112.269 12.2992C111.914 13.0892 111.432 13.7601 110.824 14.3118C110.213 14.8669 109.5 15.2942 108.687 15.5939C107.874 15.8902 107.01 16.0383 106.094 16.0383C105.961 16.0383 105.831 16.0349 105.704 16.0281C105.578 16.0213 105.433 16.0043 105.269 15.977L105.479 13.4843C105.547 13.5013 105.631 13.5115 105.73 13.5149C105.829 13.5183 105.921 13.52 106.007 13.52C106.424 13.52 106.787 13.4315 107.098 13.2544C107.413 13.0739 107.672 12.8304 107.877 12.5239C108.079 12.2174 108.233 11.8599 108.339 11.4512C108.441 11.0426 108.492 10.6067 108.492 10.1435C108.492 9.49311 108.412 8.94143 108.251 8.48851C108.087 8.03559 107.853 7.66611 107.549 7.38005C107.245 7.094 106.878 6.88456 106.448 6.75175C106.02 6.61894 105.539 6.55254 105.002 6.55254H103.127ZM127.91 22.1017H116.313V3.82991H128.274L127.787 6.55254H120.73V11.4001H126.885L126.434 13.9338H120.73V19.3841H128.397L127.91 22.1017ZM146.478 18.4238V20.416C146.078 20.7497 145.623 21.0375 145.114 21.2792C144.605 21.521 144.074 21.7203 143.521 21.8769C142.964 22.0336 142.398 22.1527 141.824 22.2345C141.247 22.3128 140.697 22.352 140.174 22.352C138.906 22.352 137.735 22.1425 136.658 21.7237C135.582 21.3014 134.648 20.7037 133.855 19.9307C133.062 19.1577 132.442 18.2263 131.995 17.1366C131.551 16.0468 131.329 14.8294 131.329 13.4843C131.329 12.4286 131.464 11.4512 131.733 10.5522C132.003 9.65657 132.379 8.84268 132.861 8.11051C133.339 7.37835 133.908 6.72962 134.567 6.16432C135.227 5.59902 135.944 5.12567 136.72 4.74426C137.495 4.35945 138.315 4.06999 139.18 3.87588C140.041 3.68177 140.917 3.58472 141.809 3.58472C142.092 3.58472 142.426 3.59493 142.808 3.61537C143.187 3.6358 143.587 3.66985 144.007 3.71753C144.428 3.76861 144.86 3.83502 145.304 3.91675C145.745 4.00188 146.177 4.10234 146.601 4.21812L145.955 7.1604L145.704 7.26256C144.935 6.89478 144.204 6.64278 143.51 6.50656C142.82 6.37035 142.209 6.30224 141.676 6.30224C140.808 6.30224 140.019 6.45718 139.308 6.76708C138.601 7.08037 137.993 7.51967 137.483 8.08497C136.974 8.65027 136.58 9.32795 136.3 10.118C136.019 10.9081 135.879 11.785 135.879 12.7487C135.879 13.7294 136.023 14.6302 136.31 15.4509C136.6 16.2682 137.021 16.9748 137.571 17.5708C138.121 18.1633 138.794 18.6247 139.59 18.9551C140.386 19.282 141.293 19.4454 142.311 19.4454C143.097 19.4454 143.83 19.3535 144.51 19.1696C145.189 18.9891 145.845 18.7405 146.478 18.4238ZM159.003 6.55254V22.1017H154.585V6.55254H148.891L149.378 3.82991H164.758L164.271 6.55254H159.003ZM175.638 19.6344C176.417 19.6344 177.11 19.4557 177.718 19.0981C178.327 18.7405 178.839 18.2603 179.256 17.6576C179.673 17.0548 179.99 16.355 180.209 15.5582C180.424 14.7647 180.532 13.9355 180.532 13.0705C180.532 12.1408 180.411 11.2673 180.168 10.45C179.926 9.62933 179.582 8.91078 179.138 8.2944C178.69 7.68143 178.152 7.19616 177.524 6.83859C176.895 6.48102 176.196 6.30224 175.428 6.30224C174.652 6.30224 173.962 6.48272 173.357 6.8437C172.752 7.20467 172.243 7.68654 171.83 8.2893C171.417 8.89205 171.102 9.59016 170.887 10.3836C170.668 11.1771 170.559 12.0063 170.559 12.8713C170.559 13.8044 170.68 14.6796 170.923 15.4969C171.165 16.3176 171.507 17.0327 171.948 17.6423C172.392 18.2552 172.927 18.7405 173.552 19.0981C174.177 19.4557 174.872 19.6344 175.638 19.6344ZM175.212 22.352C173.904 22.352 172.689 22.1493 171.569 21.7441C170.445 21.3422 169.471 20.7565 168.648 19.9869C167.821 19.2173 167.172 18.2757 166.7 17.1621C166.229 16.0485 165.993 14.7817 165.993 13.3617C165.993 11.9041 166.241 10.576 166.736 9.37733C167.235 8.17522 167.923 7.14508 168.801 6.28691C169.683 5.43215 170.726 4.7681 171.933 4.29475C173.135 3.82139 174.451 3.58472 175.879 3.58472C177.18 3.58472 178.392 3.78393 179.512 4.18237C180.633 4.5808 181.606 5.16483 182.433 5.93445C183.26 6.70408 183.909 7.64567 184.381 8.75924C184.852 9.87281 185.088 11.1396 185.088 12.5597C185.088 13.5336 184.975 14.4514 184.75 15.313C184.524 16.1711 184.205 16.9646 183.791 17.6933C183.378 18.4221 182.876 19.0725 182.285 19.6447C181.694 20.2168 181.032 20.7054 180.301 21.1107C179.57 21.5125 178.778 21.8207 177.923 22.0353C177.069 22.2464 176.166 22.352 175.212 22.352ZM195.507 15.3436H193.18V22.1017H188.762V3.82991H195.343C196.538 3.82991 197.577 3.95931 198.459 4.21812C199.343 4.47694 200.08 4.82429 200.667 5.26018C201.255 5.69607 201.696 6.20178 201.99 6.77729C202.28 7.3494 202.425 7.95216 202.425 8.58557C202.425 9.15768 202.318 9.69914 202.102 10.21C201.884 10.7208 201.604 11.1907 201.262 11.6198C200.92 12.0489 200.539 12.4388 200.119 12.7896C199.699 13.1437 199.287 13.4536 198.884 13.7192L204.014 22.1017H198.884L195.507 15.3436ZM193.18 6.55254V12.81H196.347C196.579 12.6874 196.802 12.5205 197.013 12.3094C197.229 12.1017 197.417 11.8633 197.577 11.5943C197.741 11.3252 197.873 11.0238 197.972 10.6901C198.071 10.3564 198.12 9.99541 198.12 9.60719C198.12 9.17471 198.054 8.77116 197.92 8.39657C197.787 8.02197 197.587 7.69675 197.321 7.42092C197.054 7.14848 196.725 6.93564 196.332 6.7824C195.942 6.62916 195.484 6.55254 194.958 6.55254H193.18Z" fill="white"/>
</g>
</g>
</g>
</g>
<g clip-path="url(#clip7_1365_64)">
<path d="M215.571 0H208.459V25.9366H215.571V0Z" fill="white"/>
<path d="M224.245 0H217.133V25.9366H224.245V0Z" fill="white" fill-opacity="0.75"/>
<path d="M232.919 0H225.806V25.9366H232.919V0Z" fill="white" fill-opacity="0.5"/>
</g>
</g>
</g>
</g>
<defs>
<clipPath id="clip0_1365_64">
<rect width="235" height="26" fill="white" transform="translate(-0.142456 -0.0317383)"/>
</clipPath>
<clipPath id="clip1_1365_64">
<rect width="234.48" height="25.9366" fill="white" transform="translate(0.11731)"/>
</clipPath>
<clipPath id="clip2_1365_64">
<rect width="234.48" height="25.9366" fill="white" transform="translate(0.11731)"/>
</clipPath>
<clipPath id="clip3_1365_64">
<rect width="204.014" height="18.7674" fill="white" transform="translate(-0.00012207 3.58459)"/>
</clipPath>
<clipPath id="clip4_1365_64">
<rect width="204.014" height="18.7674" fill="white" transform="translate(-0.00012207 3.58459)"/>
</clipPath>
<clipPath id="clip5_1365_64">
<rect width="204.014" height="18.7674" fill="white" transform="translate(-0.00012207 3.58459)"/>
</clipPath>
<clipPath id="clip6_1365_64">
<rect width="204.014" height="18.7674" fill="white" transform="translate(-0.00012207 3.58459)"/>
</clipPath>
<clipPath id="clip7_1365_64">
<rect width="26.0214" height="25.9366" fill="white" transform="translate(208.459)"/>
</clipPath>
</defs>
</svg>
